<svg width="30" height="30" viewBox="0 0 30 30" fill="none" xmlns="http://www.w3.org/2000/svg">
<circle cx="15" cy="15" r="14.5" fill="#FAFAFA" stroke="#E8E8E8"/>
<rect width="16" height="16" transform="translate(7 7)" fill="#FAFAFA"/>
<g clip-path="url(#clip0_5275_1150)">
<path d="M17.4853 13.4574L16.5427 12.5147L10.3333 18.7241V19.6667H11.276L17.4853 13.4574ZM18.428 12.5147L19.3707 11.5721L18.428 10.6294L17.4853 11.5721L18.428 12.5147ZM11.828 21.0001H9V18.1714L17.9567 9.21472C18.0817 9.08974 18.2512 9.01953 18.428 9.01953C18.6048 9.01953 18.7743 9.08974 18.8993 9.21472L20.7853 11.1007C20.9103 11.2257 20.9805 11.3953 20.9805 11.5721C20.9805 11.7488 20.9103 11.9184 20.7853 12.0434L11.828 21.0001Z" fill="#858585"/>
</g>
<defs>
<clipPath id="clip0_5275_1150">
<rect width="16" height="16" fill="white" transform="translate(7 7)"/>
</clipPath>
</defs>
</svg>
